<?xml version="1.0" standalone="no"?>
<!DOCTYPE svg PUBLIC "-//W3C//DTD SVG 1.0//EN" "http://www.w3.org/TR/2001/REC-SVG-20010904/DTD/svg10.dtd">
<svg xmlns="http://www.w3.org/2000/svg" xmlns:xlink="http://www.w3.org/1999/xlink" id="body_1" width="60" height="60">

<g transform="matrix(0.24390244 0 0 0.24390244 -0 1.4634147)">
    <path d="M123.715 0.339046C 147.286 3.72688 152.676 37.0807 172.56 50.2293C 194.145 64.5024 231.847 55.3437 242.587 78.9438C 253.025 101.882 226.808 124.911 217.138 148.186C 208.48 169.022 206.667 193.945 188.999 207.915C 171.072 222.089 146.374 224.776 123.715 222.052C 102.754 219.532 86.2242 205.559 68.8839 193.473C 51.1005 181.077 30.2326 170.967 21.743 150.975C 12.906 130.164 15.0878 106.059 22.7268 84.7765C 30.204 63.9445 46.5791 48.7293 63.5283 34.5579C 81.6889 19.3736 100.319 -3.02379 123.715 0.339046z" stroke="none" fill="#786BC7" fill-rule="nonzero" />
	<g>
        <path d="M22.8881 159.194C 10.1924 114.254 47.8827 74.0488 88.3418 50.445C 124.736 29.2129 171.267 26.3117 202.61 54.3443C 231.6 80.2719 226.375 124.086 210.279 159.502C 196.376 190.091 166.485 207.952 132.822 207.897C 88.4646 207.824 34.9099 201.748 22.8881 159.194z" stroke="none" fill="#FAF9FD" fill-rule="nonzero" />
	</g>
    <path d="M147.687 104.217C 145.965 104.217 144.569 105.608 144.569 107.324C 144.569 109.04 145.965 110.43 147.687 110.43C 149.41 110.43 150.806 109.04 150.806 107.324C 150.806 105.608 149.41 104.217 147.687 104.217z" stroke="none" fill="#6759C0" fill-rule="nonzero" />
    <path d="M186.856 121.718C 186.973 122.661 185.746 123.107 185.227 122.316C 182.676 118.472 179.606 114.998 176.113 112.006C 176.113 112 173.954 110.255 173.949 110.25C 166.556 104.585 157.524 100.944 147.687 100.142C 147.687 100.142 147.581 100.132 147.575 100.132C 146.252 100.026 144.913 99.9697 143.563 99.9697C 137.27 99.9697 131.253 101.131 125.713 103.251C 135.224 107.517 142.616 115.616 145.911 125.583C 146.863 128.463 147.469 131.492 147.687 134.636C 147.713 134.976 147.733 135.32 147.749 135.665C 147.759 135.858 147.779 136.639 147.764 137.349C 147.743 138.308 147.683 139.292 147.677 139.317C 146.852 148.416 141.104 156.09 133.106 159.696C 133.106 159.696 132.138 160.127 131.731 160.269C 130.036 160.908 128.259 161.375 126.411 161.638C 124.226 162.034 121.981 162.252 119.685 162.252C 115.591 162.252 111.656 161.588 107.97 160.38C 106.081 159.757 104.258 158.991 102.511 158.093C 100.424 157.099 98.3976 155.988 96.4476 154.776C 95.5413 154.218 94.6554 153.635 93.7848 153.031C 85.303 147.153 78.3528 139.231 73.6636 129.98C 72.9355 128.544 72.2635 127.079 71.6423 125.583C 68.6486 118.31 66.9888 110.347 66.9888 101.998L66.9888 101.998L66.9888 101.577C 66.999 100.883 67.7576 100.472 68.3482 100.837C 73.8576 104.235 80.3232 106.249 87.2475 106.391C 87.5122 106.396 87.777 106.411 88.0417 106.411C 88.4954 106.411 88.9378 106.391 89.3864 106.375C 96.6513 106.122 103.388 103.814 109.023 100.005C 109.039 99.9951 109.054 99.9799 109.069 99.9697C 109.772 99.498 110.449 98.9908 111.111 98.4735C 111.462 98.1996 111.808 97.9207 112.15 97.6372C 117.165 93.7111 122.959 90.7187 129.257 88.9334C 133.61 87.6958 138.202 87.0365 142.953 87.0365C 144.551 87.0365 146.13 87.1131 147.687 87.2602C 151.073 87.5792 154.362 88.2335 157.519 89.192C 161.567 90.4194 165.396 92.1439 168.934 94.2994C 169.189 94.4566 169.449 94.6144 169.698 94.7761C 169.794 94.837 169.892 94.8979 169.988 94.9587C 170.288 95.1515 170.583 95.3493 170.879 95.5471C 172.799 96.8556 174.585 98.3366 176.22 99.9697C 181.209 104.955 184.789 111.341 186.316 118.487C 186.546 119.547 186.723 120.628 186.856 121.718z" stroke="none" fill="#6759C0" fill-rule="nonzero" />
</g>
</svg>